<?xml version="1.0" encoding="utf-8"?>
<!-- Generator: Adobe Illustrator 26.0.0, SVG Export Plug-In . SVG Version: 6.00 Build 0)  -->
<svg version="1.1" id="Layer_1" xmlns="http://www.w3.org/2000/svg" xmlns:xlink="http://www.w3.org/1999/xlink" x="0px" y="0px"
	 viewBox="0 0 14 16" style="enable-background:new 0 0 14 16;" xml:space="preserve">
<style type="text/css">
	.st0{fill:#FFFFFF;}
	.st1{fill:#1DBF73;}
</style>
<ellipse class="st0" cx="7.5" cy="8" rx="4.8" ry="4.4"/>
<path class="st1" d="M8,5.1c0-0.3-0.2-0.5-0.5-0.5C7.2,4.5,7,4.8,7,5.1v2.4H4.6C4.3,7.5,4,7.7,4,8c0,0.3,0.2,0.5,0.5,0.5H7v2.4
	c0,0.3,0.2,0.5,0.5,0.5c0.3,0,0.5-0.2,0.5-0.5V8.5h2.4C10.7,8.5,11,8.3,11,8c0-0.3-0.2-0.5-0.5-0.5H8V5.1z"/>
</svg>
