<svg width="23" height="22" viewBox="0 0 23 22" fill="none" xmlns="http://www.w3.org/2000/svg">
<path d="M21.9004 10.17L17.4961 14.0137L18.8155 19.7364C18.8853 20.0355 18.8653 20.3486 18.7582 20.6365C18.651 20.9245 18.4614 21.1744 18.2129 21.3551C17.9645 21.5358 17.6683 21.6392 17.3614 21.6525C17.0545 21.6658 16.7504 21.5883 16.4873 21.4297L11.4961 18.4024L6.51565 21.4297C6.25253 21.5883 5.94851 21.6658 5.6416 21.6525C5.33468 21.6392 5.03849 21.5358 4.79006 21.3551C4.54162 21.1744 4.35196 20.9245 4.24479 20.6365C4.13763 20.3486 4.11771 20.0355 4.18752 19.7364L5.5049 14.0196L1.09963 10.17C0.866632 9.96902 0.698149 9.70374 0.615311 9.40742C0.532473 9.11109 0.538967 8.79691 0.633979 8.50426C0.728991 8.21161 0.908291 7.95352 1.14939 7.76237C1.3905 7.57122 1.68267 7.4555 1.98928 7.42974L7.79592 6.92681L10.0625 1.52056C10.1809 1.23688 10.3805 0.994568 10.6363 0.824129C10.8921 0.65369 11.1926 0.562744 11.5 0.562744C11.8074 0.562744 12.1079 0.65369 12.3637 0.824129C12.6195 0.994568 12.8192 1.23688 12.9375 1.52056L15.211 6.92681L21.0156 7.42974C21.3223 7.4555 21.6144 7.57122 21.8555 7.76237C22.0966 7.95352 22.2759 8.21161 22.3709 8.50426C22.466 8.79691 22.4725 9.11109 22.3896 9.40742C22.3068 9.70374 22.1383 9.96902 21.9053 10.17H21.9004Z" fill="#FFCB31"/>
</svg>
